<svg width="1164" height="313" viewBox="0 0 1164 313" fill="none" xmlns="http://www.w3.org/2000/svg">
<rect x="338" y="14" width="826" height="33" rx="16" fill="#1900A7" fill-opacity="0.36"/>
<rect x="338" y="14" width="645" height="33" rx="16" fill="#5C00FA"/>
<rect x="338" y="77" width="826" height="33" rx="16" fill="#1900A7" fill-opacity="0.36"/>
<rect x="338" y="140" width="826" height="33" rx="16" fill="#1900A7" fill-opacity="0.36"/>
<rect x="338" y="203" width="826" height="33" rx="16" fill="#1900A7" fill-opacity="0.36"/>
<rect x="338" y="266" width="826" height="33" rx="16" fill="#1900A7" fill-opacity="0.36"/>
<rect x="338" y="77" width="451" height="33" rx="16" fill="#5C00FA"/>
<rect x="338" y="140" width="540" height="33" rx="16" fill="#5C00FA"/>
<rect x="338" y="203" width="179" height="33" rx="16" fill="#5C00FA"/>
<rect x="338" y="266" width="112" height="33" rx="16" fill="#5C00FA"/>
<g filter="url(#filter0_d_249_5)">
<path d="M66.5 251.75C54.3333 251.75 43.3333 249.167 33.5 244C23.6667 238.667 15.5 231 9 221L27 201.5C34.3333 209.667 40.9167 215.333 46.75 218.5C52.5833 221.5 59 223 66 223C72.3333 223 78 221.667 83 219C88 216.167 92 212.417 95 207.75C98 202.917 99.5 197.667 99.5 192C99.5 185.833 98.0833 180.417 95.25 175.75C92.4167 170.917 88.5833 167.083 83.75 164.25C78.9167 161.417 73.4167 160 67.25 160C63.9167 160 60.75 160.25 57.75 160.75C54.75 161.25 51.25 162.25 47.25 163.75C43.4167 165.25 38.5 167.583 32.5 170.75L17 149.75L27.25 74.5H124V103.25H45.5L52.75 95.25L44.5 150.75L35.25 144.25C37.4167 142.25 40.5833 140.333 44.75 138.5C49.0833 136.667 53.75 135.167 58.75 134C63.75 132.833 68.6667 132.25 73.5 132.25C84.3333 132.25 94 134.75 102.5 139.75C111 144.75 117.75 151.667 122.75 160.5C127.75 169.167 130.25 179.167 130.25 190.5C130.25 202 127.417 212.417 121.75 221.75C116.25 230.917 108.667 238.25 99 243.75C89.3333 249.083 78.5 251.75 66.5 251.75Z" fill="#5800F1"/>
</g>
<defs>
<filter id="filter0_d_249_5" x="5" y="74.5" width="129.25" height="185.25" filterUnits="userSpaceOnUse" color-interpolation-filters="sRGB">
<feFlood flood-opacity="0" result="BackgroundImageFix"/>
<feColorMatrix in="SourceAlpha" type="matrix" values="0 0 0 0 0 0 0 0 0 0 0 0 0 0 0 0 0 0 127 0" result="hardAlpha"/>
<feOffset dy="4"/>
<feGaussianBlur stdDeviation="2"/>
<feComposite in2="hardAlpha" operator="out"/>
<feColorMatrix type="matrix" values="0 0 0 0 1 0 0 0 0 1 0 0 0 0 1 0 0 0 0.25 0"/>
<feBlend mode="normal" in2="BackgroundImageFix" result="effect1_dropShadow_249_5"/>
<feBlend mode="normal" in="SourceGraphic" in2="effect1_dropShadow_249_5" result="shape"/>
</filter>
</defs>
</svg>
