<svg width="593" height="552" viewBox="0 0 593 552" fill="none" xmlns="http://www.w3.org/2000/svg">
<g filter="url(#filter0_d_235_4)">
<rect x="31" y="32" width="509" height="468" rx="100" fill="#242424"/>
</g>
<path d="M119.89 193C81.9945 193 50.95 222.22 48 259.353L86.6649 275.339C89.9411 273.099 93.8989 271.786 98.1568 271.786C98.5384 271.786 98.9183 271.799 99.295 271.82L116.49 246.898C116.49 246.779 116.488 246.663 116.488 246.545C116.488 231.544 128.691 219.34 143.694 219.34C158.695 219.34 170.898 231.544 170.898 246.545C170.898 261.547 158.695 273.753 143.694 273.753C143.487 273.753 143.281 273.748 143.076 273.743L118.552 291.241C118.566 291.559 118.577 291.883 118.577 292.206C118.577 303.468 109.417 312.626 98.1568 312.626C88.2728 312.626 80.0082 305.572 78.1361 296.229L50.4853 284.798C59.0467 315.077 86.8655 337.277 119.89 337.277C159.732 337.277 192.029 304.978 192.029 265.141C192.029 225.297 159.73 193 119.89 193Z" fill="#C5C3C0"/>
<path d="M93.2052 302.459L84.3438 298.798C85.9142 302.067 88.631 304.805 92.2382 306.309C100.036 309.557 109.027 305.857 112.277 298.052C113.85 294.279 113.86 290.112 112.3 286.329C110.742 282.544 107.804 279.592 104.025 278.017C100.276 276.456 96.2596 276.514 92.7307 277.846L101.884 281.631C107.636 284.028 110.356 290.633 107.959 296.384C105.566 302.137 98.9568 304.857 93.2052 302.459Z" fill="#C5C3C0"/>
<path d="M161.819 246.545C161.819 236.55 153.688 228.418 143.692 228.418C133.697 228.418 125.564 236.55 125.564 246.545C125.564 256.542 133.697 264.671 143.692 264.671C153.688 264.669 161.819 256.54 161.819 246.545ZM130.104 246.514C130.104 238.993 136.202 232.898 143.723 232.898C151.244 232.898 157.341 238.993 157.341 246.514C157.341 254.035 151.244 260.131 143.723 260.131C136.202 260.131 130.104 254.034 130.104 246.514Z" fill="#C5C3C0"/>
<path d="M269.07 242.358L264.236 250.854C260.513 248.253 255.468 246.688 251.063 246.688C246.029 246.688 242.914 248.772 242.914 252.504C242.914 257.039 248.447 258.095 256.671 261.046C265.511 264.172 270.593 267.846 270.593 275.943C270.593 287.021 261.881 293.242 249.36 293.242C243.258 293.242 235.897 291.667 230.238 288.224L233.764 278.805C238.361 281.233 243.86 282.673 248.762 282.673C255.37 282.673 258.51 280.235 258.51 276.631C258.51 272.507 253.721 271.268 245.99 268.707C237.179 265.766 231.073 261.906 231.073 252.945C231.073 242.839 239.167 237.035 250.812 237.035C258.928 237.035 265.451 239.607 269.07 242.358Z" fill="#C5C3C0"/>
<path d="M306.854 247.728V292.311H295.473V247.728H278.953V237.966H323.324V247.728H306.854Z" fill="#C5C3C0"/>
<path d="M347.317 247.699V259.944H369.097V269.705H347.317V282.46H372.587V292.311H335.939V237.966H372.587V247.699H347.317Z" fill="#C5C3C0"/>
<path d="M397.989 281.76L394.391 292.312H382.461L402.837 237.968H414.293L435.245 292.311H422.912L419.236 281.758L397.989 281.76ZM408.501 250.931L401.079 272.69H416.075L408.501 250.931Z" fill="#C5C3C0"/>
<path d="M493.654 258.972L478.781 290.727H472.359L457.728 259.256V292.311H446.83V237.966H457.704L475.968 277.195L493.583 237.966H504.552V292.311H493.655L493.654 258.972Z" fill="#C5C3C0"/>
<path d="M526.553 244.822C526.553 249.492 523.054 252.403 519.037 252.403C515.006 252.403 511.498 249.492 511.498 244.822C511.498 240.153 515.006 237.262 519.037 237.262C523.055 237.262 526.553 240.153 526.553 244.822ZM512.762 244.822C512.762 248.729 515.577 251.183 519.037 251.183C522.484 251.183 525.288 248.729 525.288 244.822C525.288 240.903 522.484 238.486 519.037 238.486C515.586 238.486 512.762 240.933 512.762 244.822ZM519.141 240.959C521.09 240.959 521.746 241.989 521.746 243.103C521.746 244.124 521.141 244.809 520.404 245.158L522.15 248.431H520.72L519.247 245.53H517.729V248.431H516.539V240.959H519.141ZM517.741 244.435H519.068C519.927 244.435 520.435 243.896 520.435 243.217C520.435 242.532 520.071 242.092 519.065 242.092H517.739V244.435H517.741Z" fill="#C5C3C0"/>
<defs>
<filter id="filter0_d_235_4" x="0" y="0" width="593" height="552" filterUnits="userSpaceOnUse" color-interpolation-filters="sRGB">
<feFlood flood-opacity="0" result="BackgroundImageFix"/>
<feColorMatrix in="SourceAlpha" type="matrix" values="0 0 0 0 0 0 0 0 0 0 0 0 0 0 0 0 0 0 127 0" result="hardAlpha"/>
<feOffset dx="11" dy="10"/>
<feGaussianBlur stdDeviation="21"/>
<feComposite in2="hardAlpha" operator="out"/>
<feColorMatrix type="matrix" values="0 0 0 0 1 0 0 0 0 1 0 0 0 0 1 0 0 0 0.25 0"/>
<feBlend mode="normal" in2="BackgroundImageFix" result="effect1_dropShadow_235_4"/>
<feBlend mode="normal" in="SourceGraphic" in2="effect1_dropShadow_235_4" result="shape"/>
</filter>
</defs>
</svg>
