<svg width="1286" height="313" viewBox="0 0 1286 313" fill="none" xmlns="http://www.w3.org/2000/svg">
<rect x="460" y="14" width="826" height="33" rx="16" fill="#1900A7" fill-opacity="0.36"/>
<rect x="460" y="14" width="645" height="33" rx="16" fill="#5C00FA"/>
<rect x="460" y="77" width="826" height="33" rx="16" fill="#1900A7" fill-opacity="0.36"/>
<rect x="460" y="140" width="826" height="33" rx="16" fill="#1900A7" fill-opacity="0.36"/>
<rect x="460" y="203" width="826" height="33" rx="16" fill="#1900A7" fill-opacity="0.36"/>
<rect x="460" y="266" width="826" height="33" rx="16" fill="#1900A7" fill-opacity="0.36"/>
<rect x="460" y="77" width="451" height="33" rx="16" fill="#5C00FA"/>
<rect x="460" y="140" width="540" height="33" rx="16" fill="#5C00FA"/>
<rect x="460" y="203" width="179" height="33" rx="16" fill="#5C00FA"/>
<rect x="460" y="266" width="112" height="33" rx="16" fill="#5C00FA"/>
<g filter="url(#filter0_d_220_3)">
<path d="M87.75 250V108.75L99.75 110L40.25 182.75L37.5 178.25H148.75V206.5H20L6.5 180.5L93.5 74.5H119V250H87.75ZM188.441 252.75C182.441 252.75 177.775 251 174.441 247.5C171.275 244 169.691 239.083 169.691 232.75C169.691 226.917 171.358 222.167 174.691 218.5C178.191 214.667 182.775 212.75 188.441 212.75C194.441 212.75 199.025 214.5 202.191 218C205.525 221.333 207.191 226.25 207.191 232.75C207.191 238.583 205.441 243.417 201.941 247.25C198.608 250.917 194.108 252.75 188.441 252.75ZM290.012 250C281.178 250 272.928 248.417 265.262 245.25C257.762 242.083 251.178 237.75 245.512 232.25C240.012 226.583 235.678 220 232.512 212.5C229.345 205 227.762 196.75 227.762 187.75C227.762 182.75 228.345 177.417 229.512 171.75C230.845 166.083 232.762 160.083 235.262 153.75C237.928 147.25 241.012 140.5 244.512 133.5C248.012 126.5 252.095 119.167 256.762 111.5L280.012 72H311.012L312.012 74.5L282.262 123.5C277.428 131.5 273.178 139.083 269.512 146.25C265.845 153.25 262.678 160 260.012 166.5C257.512 172.833 255.428 179 253.762 185L247.012 162.25C249.512 156.917 252.595 152.083 256.262 147.75C259.928 143.417 264.012 139.75 268.512 136.75C273.012 133.75 277.678 131.5 282.512 130C287.512 128.5 292.595 127.75 297.762 127.75C307.428 127.75 316.345 130.417 324.512 135.75C332.678 140.917 339.178 147.833 344.012 156.5C349.012 165.167 351.512 174.667 351.512 185C351.512 197.5 348.845 208.667 343.512 218.5C338.345 228.167 331.095 235.833 321.762 241.5C312.428 247.167 301.845 250 290.012 250ZM290.262 221.5C296.262 221.5 301.595 220.083 306.262 217.25C311.095 214.417 314.845 210.5 317.512 205.5C320.178 200.333 321.512 194.417 321.512 187.75C321.512 182.083 320.095 176.833 317.262 172C314.595 167 310.928 163 306.262 160C301.595 156.833 296.345 155.25 290.512 155.25C284.178 155.25 278.512 156.75 273.512 159.75C268.678 162.583 264.845 166.5 262.012 171.5C259.345 176.333 258.012 181.75 258.012 187.75C258.012 194.083 259.345 199.833 262.012 205C264.845 210 268.678 214 273.512 217C278.345 220 283.928 221.5 290.262 221.5Z" fill="#5800F1"/>
</g>
<defs>
<filter id="filter0_d_220_3" x="2.5" y="72" width="353.012" height="188.75" filterUnits="userSpaceOnUse" color-interpolation-filters="sRGB">
<feFlood flood-opacity="0" result="BackgroundImageFix"/>
<feColorMatrix in="SourceAlpha" type="matrix" values="0 0 0 0 0 0 0 0 0 0 0 0 0 0 0 0 0 0 127 0" result="hardAlpha"/>
<feOffset dy="4"/>
<feGaussianBlur stdDeviation="2"/>
<feComposite in2="hardAlpha" operator="out"/>
<feColorMatrix type="matrix" values="0 0 0 0 1 0 0 0 0 1 0 0 0 0 1 0 0 0 0.25 0"/>
<feBlend mode="normal" in2="BackgroundImageFix" result="effect1_dropShadow_220_3"/>
<feBlend mode="normal" in="SourceGraphic" in2="effect1_dropShadow_220_3" result="shape"/>
</filter>
</defs>
</svg>
