<svg width="1286" height="313" viewBox="0 0 1286 313" fill="none" xmlns="http://www.w3.org/2000/svg">
<rect x="460" y="14" width="826" height="33" rx="16" fill="#1900A7" fill-opacity="0.36"/>
<rect x="460" y="14" width="645" height="33" rx="16" fill="#5C00FA"/>
<rect x="460" y="77" width="826" height="33" rx="16" fill="#1900A7" fill-opacity="0.36"/>
<rect x="460" y="140" width="826" height="33" rx="16" fill="#1900A7" fill-opacity="0.36"/>
<rect x="460" y="203" width="826" height="33" rx="16" fill="#1900A7" fill-opacity="0.36"/>
<rect x="460" y="266" width="826" height="33" rx="16" fill="#1900A7" fill-opacity="0.36"/>
<rect x="460" y="77" width="451" height="33" rx="16" fill="#5C00FA"/>
<rect x="460" y="140" width="540" height="33" rx="16" fill="#5C00FA"/>
<rect x="460" y="203" width="179" height="33" rx="16" fill="#5C00FA"/>
<rect x="460" y="266" width="112" height="33" rx="16" fill="#5C00FA"/>
<g filter="url(#filter0_d_249_7)">
<path d="M66 252.5C53 252.5 41.6667 249.667 32 244C22.3333 238.167 13.4167 228.333 5.25 214.5L29.75 199C33.5833 205.167 37.5 210.167 41.5 214C45.6667 217.667 49.8333 220.417 54 222.25C58.3333 223.917 62.9167 224.75 67.75 224.75C73.25 224.75 78.25 223.417 82.75 220.75C87.4167 218.083 91.0833 214.417 93.75 209.75C96.5833 205.083 98 199.75 98 193.75C98 187.75 96.8333 182.667 94.5 178.5C92.3333 174.333 89.0833 171.167 84.75 169C80.5833 166.667 75.5 165.5 69.5 165.5C66.8333 165.5 64 165.833 61 166.5C58 167 54.8333 167.833 51.5 169C48.1667 170 44.5 171.25 40.5 172.75L32.5 151.5L82.25 96.5L89.75 103.75L16 103.25V74.5H118.75L124.75 86.5L67.25 149.25L59.75 141C61.0833 140.333 63.25 139.75 66.25 139.25C69.4167 138.583 72.1667 138.25 74.5 138.25C81.8333 138.25 88.8333 139.667 95.5 142.5C102.167 145.167 107.917 149 112.75 154C117.75 159 121.667 164.833 124.5 171.5C127.333 178 128.75 185.083 128.75 192.75C128.75 204.25 125.917 214.5 120.25 223.5C114.75 232.333 107.25 239.417 97.75 244.75C88.25 249.917 77.6667 252.5 66 252.5ZM167.445 252.75C161.445 252.75 156.779 251 153.445 247.5C150.279 244 148.695 239.083 148.695 232.75C148.695 226.917 150.362 222.167 153.695 218.5C157.195 214.667 161.779 212.75 167.445 212.75C173.445 212.75 178.029 214.5 181.195 218C184.529 221.333 186.195 226.25 186.195 232.75C186.195 238.583 184.445 243.417 180.945 247.25C177.612 250.917 173.112 252.75 167.445 252.75ZM217.516 250L209.266 229.5L261.766 170.75C264.766 167.75 267.849 164.333 271.016 160.5C274.182 156.5 277.182 152.417 280.016 148.25C283.016 143.917 285.432 139.75 287.266 135.75C289.099 131.583 290.016 127.75 290.016 124.25C290.016 119.75 289.016 115.833 287.016 112.5C285.182 109.167 282.516 106.583 279.016 104.75C275.516 102.917 271.182 102 266.016 102C261.516 102 257.099 103.333 252.766 106C248.599 108.5 244.682 112.167 241.016 117C237.516 121.667 234.599 127.25 232.266 133.75L207.766 119.25C210.766 109.583 215.266 101.25 221.266 94.25C227.432 87.0833 234.599 81.5833 242.766 77.75C251.099 73.9167 260.099 72 269.766 72C279.766 72 288.682 74.0833 296.516 78.25C304.349 82.4167 310.516 88.1667 315.016 95.5C319.682 102.833 322.016 111.417 322.016 121.25C322.016 124.917 321.599 128.75 320.766 132.75C319.932 136.583 318.599 140.667 316.766 145C315.099 149.167 312.849 153.583 310.016 158.25C307.182 162.75 303.766 167.5 299.766 172.5C295.932 177.5 291.516 182.75 286.516 188.25L246.766 231.5L241.766 220H328.266V250H217.516Z" fill="#5800F1"/>
</g>
<defs>
<filter id="filter0_d_249_7" x="1.25" y="72" width="331.016" height="188.75" filterUnits="userSpaceOnUse" color-interpolation-filters="sRGB">
<feFlood flood-opacity="0" result="BackgroundImageFix"/>
<feColorMatrix in="SourceAlpha" type="matrix" values="0 0 0 0 0 0 0 0 0 0 0 0 0 0 0 0 0 0 127 0" result="hardAlpha"/>
<feOffset dy="4"/>
<feGaussianBlur stdDeviation="2"/>
<feComposite in2="hardAlpha" operator="out"/>
<feColorMatrix type="matrix" values="0 0 0 0 1 0 0 0 0 1 0 0 0 0 1 0 0 0 0.25 0"/>
<feBlend mode="normal" in2="BackgroundImageFix" result="effect1_dropShadow_249_7"/>
<feBlend mode="normal" in="SourceGraphic" in2="effect1_dropShadow_249_7" result="shape"/>
</filter>
</defs>
</svg>
